# xmcd
#
# Track frame offsets: 
#        150
#        20761
#        41709
#        59989
#        77328
#        97672
#        112094
#        131954
#        153865
#        176089
#        200667
#
# Disc length: 2881 seconds
#
# Revision: 0
# Processed by: cddbd v1.5.2PL0 Copyright (c) Steve Scherf et al.
# Submitted via: ExactAudioCopy v0.90b4
#
DISCID=990b3f0b
DTITLE=Jenny Bohman - Coming Home
DYEAR=2009
DGENRE=Blues
TTITLE0=The Party Is Over
TTITLE1=Right By Your Side
TTITLE2=Billys Walk
TTITLE3=Democracy
TTITLE4=Coming Home
TTITLE5=I Just Want Youre Money
TTITLE6=You Got to Give Me Love
TTITLE7=Waste
TTITLE8=Another Woman
TTITLE9=The Reason Why
TTITLE10=You Got My Timer Set
EXTD=
EXTT0=
EXTT1=
EXTT2=
EXTT3=
EXTT4=
EXTT5=
EXTT6=
EXTT7=
EXTT8=
EXTT9=
EXTT10=
PLAYORDER=
